# xmcd
#
# Track frame offsets:
#	150
#	21216
#	34613
#	48927
#	61714
#	74641
#	90992
#	107394
#	119035
#	133557
#	145941
#	159066
#	177327
#	192608
#	207739
#	221690
#
# Disc length: 3101 seconds
#
# Revision: 0
# Processed by: cddbd v1.5.2PL0 Copyright (c) Steve Scherf et al.
# Submitted via: EasyCDDAExtractor 8.2.1.1
#
DISCID=e70c1b10
DTITLE=Norm Price - Almost Like a Song
DYEAR=1900
DGENRE=Country
TTITLE0=For The Good Times
TTITLE1=The Last Thing On My Mind
TTITLE2=Send Me The Pillow That You Dream On
TTITLE3=Take Good Care of Her
TTITLE4=Just A Girl I Used To Know
TTITLE5=Making Believe
TTITLE6=You Don't Know Me
TTITLE7=What In The World's Come Over You
TTITLE8=Help Me Make It Through The Night
TTITLE9=She's Not For You
TTITLE10=Skip A Rope
TTITLE11=Red River Valley
TTITLE12=Born To Lose
TTITLE13=Jody And The Kid
TTITLE14=That Lucky Old Sun
TTITLE15=It Was Almost Lioke A Song
EXTD=
EXTT0=
EXTT1=
EXTT2=
EXTT3=
EXTT4=
EXTT5=
EXTT6=
EXTT7=
EXTT8=
EXTT9=
EXTT10=
EXTT11=
EXTT12=
EXTT13=
EXTT14=
EXTT15=
PLAYORDER=
